<svg width="16" height="16" viewBox="0 0 16 16" fill="none" xmlns="http://www.w3.org/2000/svg">
<path fill-rule="evenodd" clip-rule="evenodd" d="M13.1584 7.20894C13.4527 7.14564 13.5621 7.18651 13.5861 7.19801C13.5959 7.21854 13.6183 7.28588 13.6028 7.44474C13.5803 7.67538 13.4834 8.00174 13.2858 8.41024C12.8933 9.22124 12.1695 10.2212 11.1953 11.1955C10.2211 12.1697 9.22109 12.8935 8.41005 13.2859C8.00155 13.4836 7.67519 13.5804 7.44455 13.6029C7.28572 13.6184 7.21839 13.596 7.19782 13.5862C7.18632 13.5623 7.14545 13.4529 7.20875 13.1585C7.28542 12.802 7.48965 12.3221 7.83462 11.7608C8.25252 11.0808 8.84992 10.325 9.58739 9.58754C10.3248 8.85011 11.0806 8.25267 11.7606 7.83477C12.3219 7.48984 12.8018 7.28561 13.1584 7.20894ZM1.47065 9.74697L6.25325 14.5296C6.62712 14.9034 7.13425 14.9728 7.57392 14.93C8.01952 14.8865 8.50495 14.7212 8.99079 14.4862C9.96842 14.0131 11.0873 13.1891 12.1381 12.1383C13.1889 11.0875 14.0129 9.96861 14.486 8.99097C14.7211 8.50514 14.8864 8.01971 14.9298 7.57411C14.9727 7.13444 14.9033 6.62731 14.5294 6.25344L9.74679 1.47083C9.28425 1.0083 8.62552 1.00878 8.09539 1.12279C7.53605 1.24308 6.91115 1.52827 6.27989 1.91621C5.49929 2.39593 4.66272 3.06138 3.86195 3.86214C3.0612 4.66287 2.39574 5.49948 1.91603 6.28008C1.52809 6.91134 1.2429 7.53624 1.12261 8.09557C1.0086 8.62571 1.00812 9.28444 1.47065 9.74697Z" fill="#0D141C"/>
</svg>
